<?xml version="1.0" standalone="no"?>
<!DOCTYPE svg PUBLIC "-//W3C//DTD SVG 20010904//EN" "http://www.w3.org/TR/2001/REC-SVG-20010904/DTD/svg10.dtd">
<!-- Created using Krita: https://krita.org -->
<svg xmlns="http://www.w3.org/2000/svg" 
    xmlns:xlink="http://www.w3.org/1999/xlink"
    xmlns:krita="http://krita.org/namespaces/svg/krita"
    xmlns:sodipodi="http://sodipodi.sourceforge.net/DTD/sodipodi-0.dtd"
    width="174.48pt"
    height="64.32pt"
    viewBox="0 0 174.48 64.32">
<defs/>
<path id="shape0" transform="translate(29.1271751418533, 14.6490649762282)" fill="#aa8110" fill-rule="evenodd" stroke-opacity="0" stroke="#000000" stroke-width="0" stroke-linecap="square" stroke-linejoin="bevel" d="M3.50129 0C30.0016 0 58.2086 4.86008 84.5156 8.36767C96.426 9.95573 114.721 12.6275 122.931 16.7353C131.141 20.8432 153.992 37.9085 132.82 28.5261C94.2483 27.0829 38.3099 50.9056 4.26199 39.5563C-2.53905 37.2892 0.838847 16.7859 0.838847 11.4105C0.838847 8.02747 3.12094 -1.86159 3.12094 1.52139" sodipodi:nodetypes="ccscccc"/><path id="shape01" transform="translate(28.7468262715619, 12.3115055467512)" fill="#f0dc46" fill-rule="evenodd" stroke="#f0dc46" stroke-width="0.96" stroke-linecap="square" stroke-linejoin="bevel" d="M3.50129 0C30.0016 0 58.2086 4.86008 84.5156 8.36767C96.426 9.95573 114.721 12.6275 122.931 16.7353C131.141 20.8432 153.992 37.9085 132.82 28.5261C94.2483 27.0829 38.3099 50.9056 4.26199 39.5563C-2.53905 37.2892 0.838847 16.7859 0.838847 11.4105C0.838847 8.02747 3.12094 -1.86159 3.12094 1.52139" sodipodi:nodetypes="ccscccc"/><ellipse id="shape1" transform="translate(24.48, 8.4)" rx="5.76" ry="3.48" cx="5.76" cy="3.48" fill="#ba912a" fill-rule="evenodd" stroke-opacity="0" stroke="#000000" stroke-width="0" stroke-linecap="square" stroke-linejoin="bevel"/><ellipse id="shape2" transform="translate(23.04, 50.4)" rx="6.24" ry="2.28" cx="6.24" cy="2.28" fill="#ba912a" fill-rule="evenodd" stroke-opacity="0" stroke="#000000" stroke-width="0" stroke-linecap="square" stroke-linejoin="bevel"/><path id="shape3" transform="translate(20.2900717499511, 9.13190724681198)" fill="#ba912a" fill-rule="evenodd" stroke="#ba912a" stroke-width="0.96" stroke-linecap="square" stroke-linejoin="bevel" d="M12.1799 42.7359C-11.9344 42.7359 6.17799 -5.48476 12.1799 0.517157C17.7023 6.03952 19.5406 44.2573 9.13713 44.2573" sodipodi:nodetypes="ccc"/><ellipse id="shape4" transform="translate(23.28, 48.48)" rx="5.52" ry="2.28" cx="5.52" cy="2.28" fill="#ba912a" fill-rule="evenodd" stroke-opacity="0" stroke="#000000" stroke-width="0" stroke-linecap="square" stroke-linejoin="bevel"/><ellipse id="shape5" transform="translate(23.04, 45.36)" rx="4.68" ry="3.48" cx="4.68" cy="3.48" fill="#ba912a" fill-rule="evenodd" stroke-opacity="0" stroke="#000000" stroke-width="0" stroke-linecap="square" stroke-linejoin="bevel"/><ellipse id="shape6" transform="translate(23.76, 12.96)" rx="4.92" ry="2.28" cx="4.92" cy="2.28" fill="#ba912a" fill-rule="evenodd" stroke-opacity="0" stroke="#000000" stroke-width="0" stroke-linecap="square" stroke-linejoin="bevel"/><ellipse id="shape7" transform="translate(23.28, 45.36)" rx="4.2" ry="3.48" cx="4.2" cy="3.48" fill="#ba912a" fill-rule="evenodd" stroke-opacity="0" stroke="#000000" stroke-width="0" stroke-linecap="square" stroke-linejoin="bevel"/><ellipse id="shape8" transform="translate(21.84, 47.28)" rx="4.92" ry="2.52" cx="4.92" cy="2.52" fill="#ba912a" fill-rule="evenodd" stroke-opacity="0" stroke="#000000" stroke-width="0" stroke-linecap="square" stroke-linejoin="bevel"/><path id="shape9" transform="translate(35.8242523529872, 11.9414634146341)" fill="#e0ba12" fill-rule="evenodd" stroke="#e0ba12" stroke-width="2.4" stroke-linecap="square" stroke-linejoin="bevel" d="M0.000137891 0C0.000137891 53.661 -0.42186 37.2293 45.4245 37.2293" sodipodi:nodetypes="cc"/><path id="shape10" transform="translate(36.5268292682927, 42.1463414634146)" fill="#e0ba12" fill-rule="evenodd" stroke="#e0ba12" stroke-width="2.4" stroke-linecap="square" stroke-linejoin="bevel" d="M0 0C0 19.295 26.694 14.4582 44.2537 10.0683C45.1522 9.84366 50.1073 8.34789 50.1073 7.72683" sodipodi:nodetypes="ccc"/><path id="shape11" transform="translate(35.7250123268278, 44.0926829268293)" fill="#e0ba12" fill-rule="evenodd" stroke="#e0ba12" stroke-width="2.4" stroke-linecap="square" stroke-linejoin="bevel" d="M2.70426 0C-1.73397 2.4 0.804744 12.3005 0.0847438 6.72878" sodipodi:nodetypes="cc"/><path id="shape12" transform="translate(68.3707317073171, 39.7394950603109)" fill="#e0ba12" fill-rule="evenodd" stroke="#e0ba12" stroke-width="2.4" stroke-linecap="square" stroke-linejoin="bevel" d="M0 0.299529C10.8046 0.299529 63.2 -1.41103 48.9366 3.34343C38.4495 6.83914 26.8922 11.3044 16.1561 11.3044" sodipodi:nodetypes="ccc"/><path id="shape13" transform="translate(157.814634146341, 38.8570109400656)" fill="#e0ba12" fill-rule="evenodd" stroke="#e0ba12" stroke-width="2.4" stroke-linecap="square" stroke-linejoin="bevel" d="M0 0.0112817C1.53457 0.0112817 7.25854 -0.262253 7.25854 1.88445" sodipodi:nodetypes="cc"/><path id="shape14" transform="translate(60.1756097560976, 33.7170731707317)" fill="#e0ba12" fill-rule="evenodd" stroke="#e0ba12" stroke-width="2.4" stroke-linecap="square" stroke-linejoin="bevel" d="M0 0C4.82136 0 11.0144 7.02439 16.6244 7.02439" sodipodi:nodetypes="cc"/><path id="shape15" transform="translate(110.517073170732, 22.7121951219512)" fill="#f0dc46" fill-rule="evenodd" stroke="#f0dc46" stroke-width="2.4" stroke-linecap="square" stroke-linejoin="bevel" d="M0 0C9.55524 0 18.2534 2.80875 27.6293 3.74634C27.8623 3.76964 28.5659 3.74634 28.3317 3.74634" sodipodi:nodetypes="ccc"/><path id="shape16" transform="translate(73.3076553362231, 16.3946833020307)" fill="#fdf060" fill-rule="evenodd" stroke="#fdf060" stroke-width="2.4" stroke-linecap="square" stroke-linejoin="bevel" d="M0 0C14.95 0 33.5379 4.2039 48.3643 6.67498C50.7872 7.07879 53.1005 7.77254 55.5077 8.19734C68.4934 10.4889 48.8995 13.1509 44.9683 12.5302C31.8087 10.4524 11.7412 1.05394 0 1.05394" sodipodi:nodetypes="ccccc"/><path id="shape17" transform="translate(45.8975774106721, 13.4490575668481)" fill="#fdf060" fill-rule="evenodd" stroke="#fdf060" stroke-width="2.4" stroke-linecap="square" stroke-linejoin="bevel" d="M0 0C0 2.9486 6.66759 -0.804109 8.75256 1.28086" sodipodi:nodetypes="cc"/><path id="shape18" transform="translate(35.8637081900358, 52.62)" fill="#e0ba12" fill-rule="evenodd" stroke="#e0ba12" stroke-width="1.44" stroke-linecap="square" stroke-linejoin="bevel" d="M0.0162918 0.12C11.5021 0.12 -0.499857 0 0.0162918 0" sodipodi:nodetypes="cc"/><path id="shape19" transform="translate(38.28, 48.217737938134)" fill="#e0ba12" fill-rule="evenodd" stroke="#e0ba12" stroke-width="1.44" stroke-linecap="square" stroke-linejoin="bevel" d="M0 0.202262C0 -0.782624 0.66 2.09738 0.66 3.08226" sodipodi:nodetypes="cc"/><path id="shape20" transform="translate(36.914843225808, 46.74)" fill="#e0ba12" fill-rule="evenodd" stroke="#e0ba12" stroke-width="1.44" stroke-linecap="square" stroke-linejoin="bevel" d="M1.36516 1.68C-3.83553 8.18086 7.94633 4.14745 1.72516 0" sodipodi:nodetypes="cc"/><path id="shape21" transform="translate(25.997816724315, 8.70867530229541)" fill="#d5a358" fill-rule="evenodd" stroke="none" stroke-width="1.44" stroke-linecap="square" stroke-linejoin="bevel" d="M0.0421833 3.17132C3.44054 3.17132 4.17148 28.8941 7.00218 17.5713C7.86991 14.1004 8.08493 -5.71143 0.762183 1.61132C0.688147 1.68536 -0.201677 2.33132 0.0421833 2.33132" sodipodi:nodetypes="cccc"/><path id="shape22" transform="translate(22.2411482961544, 29.3849520880666)" fill="#ad7727" fill-rule="evenodd" stroke="#ad7727" stroke-width="1.44" stroke-linecap="square" stroke-linejoin="bevel" d="M0.198852 0.615048C0.198852 4.71015 -1.98459 29.3107 8.11885 22.575C12.5387 19.6285 3.94646 14.0635 3.19885 7.33505C3.036 5.86942 0.438852 -1.76245 0.438852 0.375048" sodipodi:nodetypes="cccc"/><ellipse id="shape02" transform="translate(52.32, 14.16)" rx="9.24" ry="8.88" cx="9.24" cy="8.88" fill="#a44844" fill-rule="evenodd" stroke-opacity="0" stroke="#000000" stroke-width="0" stroke-linecap="square" stroke-linejoin="bevel"/><ellipse id="shape110" transform="translate(90.24, 27.84)" rx="9.72" ry="9.6" cx="9.72" cy="9.6" fill="#a44844" fill-rule="evenodd" stroke-opacity="0" stroke="#000000" stroke-width="0" stroke-linecap="square" stroke-linejoin="bevel"/><path id="shape23" transform="translate(42.7393977812995, 46.2389736602277)" fill="#a44844" fill-rule="evenodd" stroke="#a44844" stroke-width="0.96" stroke-linecap="square" stroke-linejoin="bevel" d="M2.03172e-30 7.91088C-7.10543e-15 -4.43921 18.6371 -0.927469 18.6371 8.85158C9.63708 8.91063 8.64 9.10098 2.03172e-30 7.91088Z" sodipodi:nodetypes="ccc"/><path id="shape31" transform="translate(139.327606973059, 24.4826624405705)" fill="#a44844" fill-rule="evenodd" stroke="#a44844" stroke-width="0.96" stroke-linecap="square" stroke-linejoin="bevel" d="M0 0C0 10.3448 14.2122 10.438 14.2122 5.45734C5.2122 1.55667 10.26 3.8752 0 0Z" sodipodi:nodetypes="ccc"/><path id="shape24" transform="translate(57.48, 16.0391888237703)" fill="#c45f5b" fill-rule="evenodd" d="M11.64 6.52081C11.64 2.74318 2.4 -3.37682 0 2.32081C8.04 3.81844 5.64 4.89844 11.64 6.52081Z" sodipodi:nodetypes="ccc"/><path id="shape25" transform="translate(93.6, 30.2832103817339)" fill="#c45f5b" fill-rule="evenodd" d="M14.4 7.87679C14.4 4.7619 12.3388 1.63679 8.04 0.0767896C4.10119 -0.40321 4.44089e-16 1.4019 0 4.51679C5.04 7.39168 13.56 10.9917 14.4 7.87679Z" sodipodi:nodetypes="cccc"/><path id="shape03" transform="translate(-1.15017437646592, 12.8439302694136)" fill="#8c8c8c" fill-rule="evenodd" stroke-opacity="0" stroke="#000000" stroke-width="0" stroke-linecap="square" stroke-linejoin="bevel" d="M0.190174 0L89.1918 17.496C59.5246 21.9334 29.8574 26.3708 0.190174 30.8082C-0.0633914 30.8082 -0.0633914 20.5388 0.190174 0Z" sodipodi:nodetypes="cccc"/><path id="shape111" transform="translate(70.896081612374, 25.8203486529319)" fill="#000000" fill-rule="evenodd" stroke-opacity="0" stroke="#000000" stroke-width="0" stroke-linecap="square" stroke-linejoin="bevel" d="M16.3439 4.68C16.3439 2.09531 11.5375 1.59595e-16 5.60859 0C-0.320371 -1.59595e-16 0.00313167 2.09531 0.00313167 4.68C0.00313167 7.26469 -0.320371 9.36 5.60859 9.36C11.5375 9.36 16.3439 7.26469 16.3439 4.68Z" sodipodi:nodetypes="ccccc"/><path id="shape26" transform="matrix(0.880566326519893 -0.473922931075571 0.473922931075571 0.880566326519893 -0.214441903155828 6.79205833010573)" fill="#8c8c8c" fill-rule="evenodd" d="M12.36 0C5.53376 -5.43788e-16 8.35973e-16 7.19926 0 16.08C-8.35973e-16 24.9607 5.53376 32.16 12.36 32.16C19.1862 32.16 19.1862 5.43788e-16 12.36 0Z" sodipodi:nodetypes="cccc"/><path id="shape27" transform="matrix(0.810178424134967 0.586183351065332 -0.586183351065332 0.810178424134967 15.1996420709819 27.2073946179218)" fill="#8c8c8c" fill-rule="evenodd" d="M11.4 0C5.10395 -4.82917e-16 7.71043e-16 6.39337 0 14.28C-7.71043e-16 22.1666 5.10395 28.56 11.4 28.56C17.696 28.56 17.696 4.82917e-16 11.4 0Z" sodipodi:nodetypes="cccc"/><path id="shape28" transform="translate(11.04, 41.384132231405)" fill="#737373" fill-rule="evenodd" d="M0 13.5759C10.16 4.21587 13.56 -0.304132 10.2 0.0158678C5.16 0.495868 5.16 0.495868 0 13.5759Z" sodipodi:nodetypes="ccc"/><path id="shape29" transform="matrix(0.880566326519893 -0.473922931075571 0.473922931075571 0.880566326519893 -0.214441903155828 6.79205833010573)" fill="#8c8c8c" fill-rule="evenodd" d="M12.36 0C5.53376 -5.43788e-16 8.35973e-16 7.19926 0 16.08C-8.35973e-16 24.9607 5.53376 32.16 12.36 32.16C19.1862 32.16 19.1862 5.43788e-16 12.36 0Z" sodipodi:nodetypes="cccc"/><path id="shape30" transform="matrix(0.810178424134967 0.586183351065332 -0.586183351065332 0.810178424134967 15.1996420709819 27.2073946179218)" fill="#8c8c8c" fill-rule="evenodd" d="M11.4 0C5.10395 -4.82917e-16 7.71043e-16 6.39337 0 14.28C-7.71043e-16 22.1666 5.10395 28.56 11.4 28.56C17.696 28.56 17.696 4.82917e-16 11.4 0Z" sodipodi:nodetypes="cccc"/><path id="shape32" transform="translate(11.04, 41.384132231405)" fill="#737373" fill-rule="evenodd" d="M0 13.5759C10.16 4.21587 13.56 -0.304132 10.2 0.0158678C5.16 0.495868 5.16 0.495868 0 13.5759Z" sodipodi:nodetypes="ccc"/><path id="shape04" transform="matrix(1 0 0 -1 12.2505088757396 16.9952122197875)" fill="#737373" fill-rule="evenodd" stroke-opacity="0" stroke="#000000" stroke-width="0" stroke-linecap="square" stroke-linejoin="bevel" d="M0 13.5759C10.16 4.21587 13.56 -0.304132 10.2 0.0158677C5.16 0.495868 5.16 0.495868 0 13.5759Z" sodipodi:nodetypes="ccc"/><ellipse id="shape33" transform="translate(31.2, 21.6)" rx="3.24" ry="2.16" cx="3.24" cy="2.16" fill="#ffffff" fill-rule="evenodd"/><ellipse id="shape34" transform="translate(31.2, 31.44)" rx="3.24" ry="2.16" cx="3.24" cy="2.16" fill="#ffffff" fill-rule="evenodd"/><ellipse id="shape35" transform="translate(32.16, 21.6)" rx="3.24" ry="2.16" cx="3.24" cy="2.16" fill="#000000" fill-rule="evenodd"/><ellipse id="shape36" transform="translate(32.16, 31.44)" rx="3.24" ry="2.16" cx="3.24" cy="2.16" fill="#000000" fill-rule="evenodd"/>
</svg>
