<?xml version="1.0" standalone="no"?>
<!DOCTYPE svg PUBLIC "-//W3C//DTD SVG 20010904//EN" "http://www.w3.org/TR/2001/REC-SVG-20010904/DTD/svg10.dtd">
<!-- Created using Krita: https://krita.org -->
<svg xmlns="http://www.w3.org/2000/svg" 
    xmlns:xlink="http://www.w3.org/1999/xlink"
    xmlns:krita="http://krita.org/namespaces/svg/krita"
    xmlns:sodipodi="http://sodipodi.sourceforge.net/DTD/sodipodi-0.dtd"
    width="240pt"
    height="240pt"
    viewBox="0 0 240 240">
<defs/>
<circle id="shape0" transform="translate(52.08, 46.08)" r="67.92" cx="67.92" cy="67.92" fill="none" stroke="#e39d05" stroke-width="25.1328" stroke-linecap="square" stroke-linejoin="bevel"/><rect id="shape1" transform="translate(97.68, 24)" fill="#e39d05" fill-rule="evenodd" width="44.64" height="19.2"/><rect id="shape01" transform="translate(97.68, 188.16)" fill="#e39d05" fill-rule="evenodd" stroke-opacity="0" stroke="#000000" stroke-width="0" stroke-linecap="square" stroke-linejoin="bevel" width="44.64" height="19.2"/><rect id="shape02" transform="matrix(0 -1 1 0 195.504 134.16)" fill="#e39d05" fill-rule="evenodd" stroke-opacity="0" stroke="#000000" stroke-width="0" stroke-linecap="square" stroke-linejoin="bevel" width="44.64" height="19.2"/><rect id="shape03" transform="matrix(0 -1 1 0 27.504 136.224)" fill="#e39d05" fill-rule="evenodd" stroke-opacity="0" stroke="#000000" stroke-width="0" stroke-linecap="square" stroke-linejoin="bevel" width="44.64" height="19.2"/><rect id="shape04" transform="matrix(0.689626862539786 -0.724164891763977 0.724164891763977 0.689626862539786 41.1595454671779 63.1109425037901)" fill="#e39d05" fill-rule="evenodd" stroke-opacity="0" stroke="#000000" stroke-width="0" stroke-linecap="square" stroke-linejoin="bevel" width="44.64" height="19.2"/><rect id="shape05" transform="matrix(0.689626862539786 -0.724164891763977 0.724164891763977 0.689626862539786 160.348436373742 181.427698156701)" fill="#e39d05" fill-rule="evenodd" stroke-opacity="0" stroke="#000000" stroke-width="0" stroke-linecap="square" stroke-linejoin="bevel" width="44.64" height="19.2"/><rect id="shape06" transform="matrix(-0.724164891763977 -0.689626862539786 0.689626862539786 -0.724164891763977 191.424724316919 75.905965838644)" fill="#e39d05" fill-rule="evenodd" stroke-opacity="0" stroke="#000000" stroke-width="0" stroke-linecap="square" stroke-linejoin="bevel" width="44.64" height="19.2"/><rect id="shape07" transform="matrix(-0.724164891763977 -0.689626862539786 0.689626862539786 -0.724164891763977 69.2614799698298 199.414856745208)" fill="#e39d05" fill-rule="evenodd" stroke-opacity="0" stroke="#000000" stroke-width="0" stroke-linecap="square" stroke-linejoin="bevel" width="44.64" height="19.2"/><ellipse id="shape2" transform="translate(93.84, 36.24)" rx="26.28" ry="22.2" cx="26.28" cy="22.2" fill="#e8cb26" fill-rule="evenodd"/><path id="shape3" transform="translate(140.399999999999, 152.999999999999)" fill="none" stroke="#f2b7f0" stroke-width="4.8" stroke-linecap="square" stroke-linejoin="bevel" d="M0 23.04C4.08 50.4 14.4 62.28 30.96 58.68C55.8 53.28 33.84 43.2 35.64 23.76C36.84 10.8 46.68 2.88 65.16 0" sodipodi:nodetypes="czzc"/><path id="shape4" transform="translate(146.159999999999, 190.079999999999)" fill="none" stroke="#f2b7f0" stroke-width="4.8" stroke-linecap="square" stroke-linejoin="bevel" d="M0 0C6.72 15.36 17.4 21.24 32.04 17.64" sodipodi:nodetypes="cc"/><path id="shape5" transform="translate(171.719999999999, 192.599999999999)" fill="none" stroke="#f2b7f0" stroke-width="4.8" stroke-linecap="square" stroke-linejoin="bevel" d="M0 16.56C7.2 16.32 9.48 10.8 6.84 0" sodipodi:nodetypes="cc"/><ellipse id="shape6" transform="matrix(0.993129646935342 -0.117019247895734 0.144553188577085 1.22680721092014 199.227982498426 150.987513396592)" rx="6.23999999999999" ry="2.03999999999999" cx="6.23999999999999" cy="2.03999999999999" fill="#f2b7f0" fill-rule="evenodd"/><circle id="shape7" transform="translate(82.08, 64.08)" r="34.68" cx="34.68" cy="34.68" fill="#b2b2b2" fill-rule="evenodd"/><ellipse id="shape8" transform="translate(101.04, 120)" rx="27" ry="44.16" cx="27" cy="44.16" fill="#b2b2b2" fill-rule="evenodd"/><ellipse id="shape9" transform="translate(95.04, 168)" rx="16.32" ry="20.52" cx="16.32" cy="20.52" fill="#b2b2b2" fill-rule="evenodd"/><ellipse id="shape10" transform="translate(59.28, 202.56)" rx="37.8" ry="4.56" cx="37.8" cy="4.56" fill="#b2b2b2" fill-rule="evenodd"/><ellipse id="shape11" transform="translate(114, 53.52)" rx="38.4" ry="16.8" cx="38.4" cy="16.8" fill="#b2b2b2" fill-rule="evenodd"/><path id="shape12" transform="translate(54.1586334201792, 74.8799999999995)" fill="#b2b2b2" fill-rule="evenodd" stroke="#b2b2b2" stroke-width="4.8" stroke-linecap="square" stroke-linejoin="bevel" d="M45.2014 0C33.2992 0 14.2498 38.4297 7.40137 46.8C6.63941 47.7313 -1.35922 57.4794 0.201367 59.04C3.15288 61.9915 50.5258 52.56 58.8814 52.56" sodipodi:nodetypes="cccc"/><path id="shape08" transform="translate(78.6910341804717, 60.4505397696171)" fill="#e8cb26" fill-rule="evenodd" stroke-opacity="0" stroke="#000000" stroke-width="0" stroke-linecap="square" stroke-linejoin="bevel" d="M1.46897 3.86946C4.46897 0.86946 24.309 -1.65054 41.309 1.34946L31.469 12.2695C14.9903 15.2239 4.99032 15.2239 1.46897 12.2695C-1.36781 9.88946 0.628966 4.70946 1.46897 3.86946Z" sodipodi:nodetypes="cccss"/><ellipse id="shape13" transform="translate(48.24, 131.04)" rx="5.4" ry="3.36" cx="5.4" cy="3.36" fill="#f2b7f0" fill-rule="evenodd"/><ellipse id="shape14" transform="translate(108, 88.56)" rx="11.52" ry="10.92" cx="11.52" cy="10.92" fill="#ffffff" fill-rule="evenodd"/><ellipse id="shape15" transform="translate(111.84, 92.88)" rx="7.92" ry="7.68" cx="7.92" cy="7.68" fill="#000000" fill-rule="evenodd"/><path id="shape16" transform="translate(105.479999999999, 41.3999999999997)" fill="#baa739" fill-rule="evenodd" stroke="#baa739" stroke-width="4.8" stroke-linecap="square" stroke-linejoin="bevel" d="M7.56 0C4.53371 0 0 12.5241 0 14.76" sodipodi:nodetypes="cc"/><path id="shape17" transform="translate(122.399999999999, 41.7599999999997)" fill="#baa739" fill-rule="evenodd" stroke="#baa739" stroke-width="4.8" stroke-linecap="square" stroke-linejoin="bevel" d="M0 0C0 4.27191 0.72 8.46899 0.72 12.6" sodipodi:nodetypes="cc"/><path id="shape18" transform="translate(129.959999999999, 43.5599999999997)" fill="#baa739" fill-rule="evenodd" stroke="#baa739" stroke-width="4.8" stroke-linecap="square" stroke-linejoin="bevel" d="M0 0C0 1.84398 1.44 2.99424 1.44 4.68" sodipodi:nodetypes="cc"/><path id="shape19" transform="translate(84.2399999999994, 70.5599999999995)" fill="#baa739" fill-rule="evenodd" stroke="#baa739" stroke-width="4.8" stroke-linecap="square" stroke-linejoin="bevel" d="M0 0C2.20236 2.20236 15.955 0.36 19.44 0.36" sodipodi:nodetypes="cc"/><path id="shape20" transform="translate(71.1107056349118, 145.799999999999)" fill="#b2b2b2" fill-rule="evenodd" stroke="#b2b2b2" stroke-width="4.8" stroke-linecap="square" stroke-linejoin="bevel" d="M38.6893 0C35.887 0 26.7151 12.3914 21.7693 14.04C16.1422 15.9157 -10.8612 11.3739 4.84929 24.84C11.9131 30.8947 23.3953 30.6162 31.8493 28.08C37.0466 26.5208 38.9111 23.1782 42.2893 19.8" sodipodi:nodetypes="ccccc"/><path id="shape09" transform="matrix(0.672303744731426 0.737191789994094 -0.841105495880808 0.767070906472495 186.853157860533 59.4994530691881)" fill="#5f3e1d" fill-rule="evenodd" stroke-opacity="0" stroke="#000000" stroke-width="0" stroke-linecap="square" stroke-linejoin="bevel" d="M2.32345 0L16.2435 0L14.0874 117.688L0 129.353Z" sodipodi:nodetypes="ccccc"/><path id="shape21" transform="matrix(0.717277369276017 0.696787755004693 -0.696787755004693 0.717277369276017 163.713334415496 9.96733268442286)" fill="#e6e6e6" fill-rule="evenodd" d="M113.862 23.292C113.862 3.27723 77.5912 1.77636e-15 57.5764 0C37.5616 -1.77636e-15 3.55271e-15 12.861 0 32.8758C21.8896 0.508664 43.8178 27.2545 60.8741 20.5924C80.8889 20.5924 89.788 0.442278 113.862 23.292Z" sodipodi:nodetypes="ccccc"/><path id="shape22" transform="translate(105.119999999999, 167.039999999999)" fill="#878787" fill-rule="evenodd" stroke="#878787" stroke-width="4.8" stroke-linecap="square" stroke-linejoin="bevel" d="M0 7.56C0 11.0571 24.7744 0 27.72 0" sodipodi:nodetypes="cc"/><path id="shape23" transform="translate(145.439999999999, 74.1599999999995)" fill="#878787" fill-rule="evenodd" stroke="#878787" stroke-width="4.8" stroke-linecap="square" stroke-linejoin="bevel" d="M0 0.72C5.84573 0.72 11.4728 0 17.28 0C19.9227 0 27.8427 0.36 25.2 0.36" sodipodi:nodetypes="ccc"/><path id="shape24" transform="translate(145.439999999999, 74.5199999999995)" fill="#878787" fill-rule="evenodd" stroke="#878787" stroke-width="4.8" stroke-linecap="square" stroke-linejoin="bevel" d="M25.2 0C26.1324 0.932411 20.1864 1.27816 18.36 1.8C10.6528 4.00206 4.25194 8.86388 0 0.36" sodipodi:nodetypes="ccc"/><ellipse id="shape25" transform="translate(84.24, 120)" rx="3.36" ry="2.76000000000001" cx="3.36" cy="2.76000000000001" fill="#878787" fill-rule="evenodd"/><ellipse id="shape26" transform="translate(91.92, 115.44)" rx="3.12" ry="2.27999999999999" cx="3.12" cy="2.27999999999999" fill="#878787" fill-rule="evenodd"/><ellipse id="shape27" transform="translate(98.64, 120)" rx="3.12" ry="3" cx="3.12" cy="3" fill="#878787" fill-rule="evenodd"/>
</svg>
